<svg width="640" height="400" viewBox="0 0 640 400" fill="none" xmlns="http://www.w3.org/2000/svg">
  <rect width="640" height="400" rx="28" fill="#050505"/>
  <g opacity="0.65" filter="url(#glow)">
    <ellipse cx="180" cy="160" rx="120" ry="70" fill="#00C6FF" fill-opacity="0.55"/>
    <ellipse cx="470" cy="220" rx="140" ry="80" fill="#00C6FF" fill-opacity="0.38"/>
  </g>
  <path d="M120 210C142 188 178 156 220 150C264 144 290 190 330 188C370 186 394 138 432 142C470 146 492 198 526 208C560 218 594 190 612 180" stroke="#00C6FF" stroke-width="3" stroke-linecap="round" stroke-linejoin="round" opacity="0.5"/>
  <path d="M88 190C118 160 170 110 236 110C292 110 320 170 366 170C418 170 450 110 506 118C562 126 598 174 620 186" stroke="url(#grad)" stroke-width="2.5" stroke-linecap="round" stroke-linejoin="round"/>
  <g fill="#F8F5F0">
    <circle cx="166" cy="140" r="4"/>
    <circle cx="232" cy="108" r="4"/>
    <circle cx="320" cy="182" r="4"/>
    <circle cx="412" cy="136" r="4"/>
    <circle cx="468" cy="214" r="4"/>
    <circle cx="522" cy="206" r="4"/>
  </g>
  <g fill="#00C6FF">
    <circle cx="230" cy="248" r="6"/>
    <circle cx="356" cy="208" r="6"/>
    <circle cx="500" cy="252" r="6"/>
  </g>
  <g font-family="'Space Grotesk', 'Segoe UI', sans-serif" font-size="16" fill="#F8F5F0" text-anchor="middle">
    <text x="230" y="274">Buenos Aires</text>
    <text x="356" y="234">Ciudad de México</text>
    <text x="500" y="278">Madrid</text>
  </g>
  <defs>
    <linearGradient id="grad" x1="88" y1="148" x2="620" y2="180" gradientUnits="userSpaceOnUse">
      <stop offset="0" stop-color="#00C6FF"/>
      <stop offset="1" stop-color="#0C89FF"/>
    </linearGradient>
    <filter id="glow" x="0" y="0" width="640" height="400" filterUnits="userSpaceOnUse" color-interpolation-filters="sRGB">
      <feGaussianBlur stdDeviation="60" result="blur"/>
    </filter>
  </defs>
</svg>
