<svg width="486" height="474" viewBox="0 0 486 474" fill="none" xmlns="http://www.w3.org/2000/svg">
<path d="M235.636 411.738C269.985 397.444 307.987 485.956 342.336 471.662C376.685 457.369 357.252 412.059 391.601 397.765C425.949 383.472 472.665 392.044 482.341 360.747C496.253 315.698 435.987 311.221 418.582 270.669C401.177 230.117 393.528 239.693 376.123 199.121C358.718 158.569 433.98 127.232 416.594 86.6796C409.99 71.302 382.386 73.7311 366.165 75.1966C349.222 76.7223 332.56 85.3747 315.516 88.6269C307.425 90.1727 296.605 91.3772 289.679 87.8038C280.243 82.9657 282.191 71.9644 281.087 63.2518C278.597 43.6985 254.808 34.0423 233.187 43.6985C232.946 43.819 232.685 43.9193 232.444 44.0398C216.304 51.307 198.015 48.0147 188.821 36.4112C170.934 13.8266 153.93 -3.45821 140.761 2.02233C106.412 16.3159 119.421 46.6295 85.052 60.9431C50.7434 75.2367 106.332 95.1112 88.6053 140.521C78.4673 166.499 48.8764 165.395 44.0583 165.314C27.3357 164.993 -4.64418 160.316 1.8602 175.492C19.2654 216.044 42.8538 194.504 60.259 235.056C77.6643 275.608 43.0345 290.022 60.4397 330.574C77.845 371.126 53.9153 408.767 94.0256 379.196C123.516 357.454 201.288 426.071 235.636 411.758V411.738Z" stroke="url(#paint0_linear_74_2350)" stroke-width="1.5" stroke-miterlimit="10"/>
<path d="M99.5262 72.7273C68.8713 85.5754 118.156 103.402 102.317 143.934C93.2426 167.121 66.8838 166.298 62.5476 166.298C47.6317 166.258 19.1851 162.082 24.9467 175.653C40.3444 211.969 61.323 193.018 76.8412 229.133C91.0343 261.956 67.6668 275.327 74.3719 304.375C75.1147 307.607 76.2188 311.02 77.7847 314.674C93.4233 351.05 71.6015 384.215 107.837 358.759C118.638 351.171 136.344 356.993 155.897 365.043C184.485 376.807 217.147 396.039 235.576 388.29C266.231 375.502 300.218 454.157 330.994 441.409C361.669 428.681 344.544 388.39 375.199 375.663C405.914 362.915 447.35 370.423 456.283 342.619C459.375 333.023 459.214 325.675 456.203 319.07C450.461 306.443 434.783 299.096 421.352 288.516C411.897 281.008 403.987 272.315 398.888 260.571C383.169 224.416 376.524 232.727 361.106 196.511C345.729 160.215 412.78 132.13 397.142 95.854C391.179 82.0623 366.426 84.2505 351.852 85.5955C350.607 85.716 349.362 85.8766 348.118 86.0572C334.186 88.2254 320.434 95.0108 306.401 97.721C304.876 98.0221 303.23 98.3031 301.523 98.524C295.24 99.3671 288.153 99.4876 283.194 96.9581C274.743 92.6218 276.389 82.8251 275.325 75.056C272.876 57.5906 251.476 48.8779 232.244 57.4701C232.023 57.5705 231.802 57.6709 231.581 57.7712C217.187 64.2756 200.826 61.2844 192.535 50.9256C176.535 30.7901 161.298 15.3723 149.453 20.2306C118.758 32.9181 130.161 59.8992 99.4659 72.7474L99.5262 72.7273Z" stroke="url(#paint1_linear_74_2350)" stroke-width="1.5" stroke-miterlimit="10"/>
<path d="M114.001 84.5316C86.9998 95.9343 130.001 111.713 116.009 147.367C107.999 167.784 84.8719 167.221 81.0375 167.302C67.9484 167.543 42.9949 163.849 48.0137 175.854C61.424 207.934 79.6724 191.633 93.3838 223.251C106.051 252.441 85.8556 263.823 92.0187 289.68C92.7012 292.551 93.6849 295.583 95.0902 298.815C108.942 330.995 89.2683 359.683 121.63 338.343C131.306 331.959 146.804 337.58 164.189 344.345C189.504 354.182 219.035 371.788 235.516 364.842C262.437 353.479 292.45 422.338 319.632 411.136C346.633 399.974 331.797 364.702 358.778 353.54C385.86 342.358 422.015 348.802 430.226 324.471C433.137 315.818 433.639 309.454 430.989 303.291C425.99 291.688 410.633 286.107 398.588 276.35C389.975 269.384 383.913 261.153 379.175 250.413C365.162 218.674 359.521 225.681 346.091 193.821C332.721 161.801 391.581 136.928 377.709 104.928C372.389 92.7022 350.467 94.6696 337.539 95.8941C336.435 95.9945 335.33 96.135 334.226 96.3157C321.88 98.263 309.714 104.306 297.288 106.735C295.923 106.996 294.477 107.257 292.972 107.457C287.451 108.2 281.188 108.281 276.731 106.032C269.263 102.218 270.648 93.6056 269.604 86.7599C267.255 71.3622 248.164 63.6132 231.361 71.1414C231.16 71.2217 230.979 71.3221 230.779 71.4024C218.131 77.1238 203.677 74.4939 196.309 65.3396C182.136 47.7136 168.706 34.1026 158.207 38.3585C131.145 49.3798 140.962 73.0887 113.941 84.4914L114.001 84.5316Z" stroke="url(#paint2_linear_74_2350)" stroke-width="1.5" stroke-miterlimit="10"/>
<path d="M128.455 96.3357C105.127 106.293 141.805 120.025 129.7 150.8C122.753 168.446 102.859 168.145 99.5064 168.305C88.2241 168.807 66.8038 165.635 71.0598 176.034C82.4625 203.879 98.061 190.187 109.925 217.369C121.087 242.905 104.023 252.32 109.685 274.985C110.307 277.495 111.19 280.145 112.395 282.955C124.48 310.94 106.974 335.151 135.421 317.946C143.973 312.787 157.263 318.207 172.5 323.668C194.522 331.577 220.962 347.597 235.456 341.414C258.663 331.517 284.68 390.538 308.269 380.902C331.596 371.306 319.069 341.053 342.377 331.437C365.824 321.801 396.74 327.181 404.168 306.343C406.918 298.634 408.063 293.254 405.774 287.552C401.518 276.973 386.502 273.118 375.842 264.225C368.073 257.761 363.857 250.032 359.481 240.295C347.195 212.953 342.437 218.734 331.094 191.171C319.752 163.608 370.402 141.786 358.296 114.042C353.599 103.382 334.547 105.129 323.265 106.213C322.301 106.313 321.338 106.434 320.374 106.574C309.614 108.281 299.034 113.58 288.214 115.748C287.029 115.989 285.764 116.21 284.46 116.391C279.702 117.053 274.241 117.094 270.327 115.126C263.822 111.834 264.946 104.406 263.923 98.5039C261.634 85.1739 244.911 78.3885 230.497 84.8326C230.337 84.9129 230.156 84.9932 229.995 85.0535C219.095 89.992 206.568 87.7034 200.103 79.7938C187.777 64.657 176.134 52.8929 166.979 56.5466C143.572 65.9218 151.802 86.3383 128.455 96.2956V96.3357Z" stroke="url(#paint3_linear_74_2350)" stroke-width="1.5" stroke-miterlimit="10"/>
<path d="M142.93 108.14C123.256 116.652 153.65 128.336 143.391 154.233C137.509 169.088 120.847 169.068 117.996 169.309C108.561 170.072 90.6135 167.402 94.1266 176.235C103.522 199.824 116.47 188.762 126.488 211.487C136.505 234.212 122.232 240.817 127.371 260.29C127.933 262.438 128.696 264.707 129.74 267.096C140.059 290.905 124.782 310.599 149.253 297.55C156.721 293.575 167.742 298.815 180.832 302.99C199.562 308.973 222.909 323.387 235.416 317.986C254.909 309.575 276.952 358.779 296.947 350.649C316.942 342.518 306.362 317.384 325.996 309.334C345.81 301.264 371.526 305.56 378.151 288.215C380.741 281.45 382.527 277.033 380.6 271.793C377.087 262.258 362.412 260.089 353.137 252.1C346.231 246.157 343.842 238.89 339.847 230.177C329.308 207.211 325.494 211.748 316.159 188.521C306.824 165.294 349.323 146.604 338.924 123.156C334.889 114.062 318.648 115.588 309.032 116.552C308.209 116.632 307.386 116.752 306.563 116.873C297.388 118.338 288.395 122.895 279.18 124.802C278.176 125.003 277.092 125.224 275.988 125.365C271.993 125.947 267.336 125.947 263.943 124.24C258.422 121.47 259.245 115.206 258.262 110.248C256.033 98.9857 241.659 93.1438 229.655 98.544C229.514 98.6043 229.373 98.6645 229.233 98.7448C220.079 102.92 209.459 100.973 203.918 94.268C193.459 81.6407 183.602 71.6834 175.773 74.7549C155.998 82.4839 162.643 99.608 142.97 108.12L142.93 108.14Z" stroke="url(#paint4_linear_74_2350)" stroke-width="1.5" stroke-miterlimit="10"/>
<path d="M157.403 119.924C141.383 126.991 165.474 136.627 157.102 157.646C152.264 169.731 138.874 169.972 136.485 170.293C128.877 171.297 114.442 169.169 117.193 176.416C124.6 195.768 134.879 187.337 143.03 205.585C151.18 223.834 140.46 229.294 145.017 245.575C145.519 247.362 146.161 249.249 147.045 251.216C155.597 270.83 142.648 286.027 163.024 277.133C169.449 274.323 178.141 279.402 189.102 282.293C204.52 286.348 224.796 299.156 235.315 294.539C251.095 287.613 269.142 326.96 285.544 320.395C301.945 313.831 293.594 293.715 309.534 287.231C325.714 280.727 346.271 283.959 352.033 270.087C354.462 264.245 356.891 260.832 355.325 256.054C352.535 247.563 338.221 247.101 330.311 239.974C324.269 234.534 323.707 227.768 320.073 220.059C311.3 201.47 308.389 204.762 301.082 185.891C293.774 167.021 328.083 151.462 319.431 132.291C316.038 124.762 302.648 126.067 294.678 126.91C293.995 126.991 293.313 127.071 292.65 127.191C285.062 128.436 277.654 132.25 270.046 133.876C269.202 134.057 268.319 134.238 267.396 134.378C264.164 134.86 260.309 134.82 257.438 133.395C252.901 131.146 253.443 126.067 252.48 122.052C250.312 112.858 238.307 108 228.691 112.316C228.57 112.376 228.47 112.416 228.349 112.476C220.942 115.869 212.249 114.263 207.612 108.803C198.999 98.6645 190.929 90.5541 184.445 93.0033C168.324 99.0861 173.383 112.918 157.363 119.964L157.403 119.924Z" stroke="url(#paint5_linear_74_2350)" stroke-width="1.5" stroke-miterlimit="10"/>
<path d="M171.858 131.728C159.492 137.349 177.298 144.938 170.794 161.078C167.02 170.393 156.882 170.895 154.955 171.297C149.213 172.501 138.232 170.955 140.26 176.597C145.66 191.713 153.288 185.891 159.592 199.683C166.257 214.298 158.669 217.771 162.704 230.86C163.145 232.285 163.687 233.771 164.37 235.337C171.135 250.775 161.941 264.466 176.837 256.717C182.498 256.115 188.541 260.009 197.414 261.595C209.479 263.763 226.724 274.945 235.256 271.071C247.321 265.63 261.374 295.141 274.202 290.102C287.03 285.063 280.867 269.966 293.133 265.088C305.398 260.21 321.158 262.338 325.996 251.939C328.284 247.02 331.316 244.611 330.111 240.275C328.043 232.827 314.111 234.052 307.567 227.808C302.387 222.87 303.672 216.607 300.38 209.901C293.414 195.688 291.366 197.736 286.086 183.201C280.806 168.667 306.904 156.26 300.018 141.385C297.268 135.422 286.708 136.506 280.405 137.229C279.863 137.289 279.321 137.37 278.799 137.45C272.796 138.454 266.975 141.525 260.972 142.89C260.31 143.031 259.607 143.191 258.884 143.312C256.435 143.693 253.384 143.633 251.015 142.469C247.461 140.742 247.702 136.848 246.799 133.776C244.671 126.629 235.035 122.755 227.828 126.007C227.748 126.047 227.647 126.087 227.567 126.127C221.906 128.737 215.14 127.472 211.406 123.237C204.661 115.588 198.377 109.324 193.218 111.171C180.771 115.628 184.204 126.148 171.858 131.748V131.728Z" stroke="url(#paint6_linear_74_2350)" stroke-width="1.5" stroke-miterlimit="10"/>
<path d="M186.332 143.533C177.64 147.708 189.123 153.249 184.485 164.491C181.775 171.016 174.909 171.779 173.444 172.28C169.569 173.605 162.061 172.702 163.326 176.777C166.719 187.658 171.737 184.446 176.154 193.781C181.333 204.742 176.857 206.228 180.39 216.145C180.771 217.209 181.193 218.313 181.715 219.477C186.714 230.719 179.988 240.436 190.668 236.3C195.286 237.063 199.1 239.251 205.765 240.898C214.156 242.965 228.671 250.714 235.235 247.623C243.587 243.688 253.644 263.322 262.879 259.849C271.511 256.576 268.159 246.298 276.751 242.985C285.343 239.673 296.204 240.777 299.958 233.811C302.126 229.796 305.74 228.411 304.917 224.536C303.571 218.132 290.021 221.023 284.841 215.703C280.525 211.267 283.657 205.505 280.726 199.804C275.627 189.927 274.402 190.77 271.11 180.571C267.817 170.373 285.745 161.119 280.605 150.519C278.477 146.142 270.769 146.986 266.131 147.568C265.73 147.608 265.348 147.668 264.947 147.748C260.53 148.531 256.294 150.86 251.898 151.924C251.416 152.045 250.894 152.165 250.372 152.265C248.686 152.546 246.437 152.446 244.59 151.583C242.021 150.378 241.981 147.668 241.097 145.52C239.01 140.441 231.762 137.53 226.964 139.718C226.904 139.738 226.844 139.779 226.784 139.799C222.869 141.646 218.031 140.702 215.2 137.711C210.342 132.552 205.805 128.135 201.991 129.36C193.198 132.21 195.025 139.397 186.352 143.553L186.332 143.533Z" stroke="url(#paint7_linear_74_2350)" stroke-width="1.5" stroke-miterlimit="10"/>
<path d="M200.786 155.337C195.747 158.067 200.946 161.58 198.176 167.924C196.53 171.678 192.816 172.441 191.912 173.284C189.684 174.147 185.85 174.489 186.372 176.978C187.757 183.603 190.186 183.001 192.675 187.919C196.389 195.226 195.024 194.745 198.015 201.47C198.336 202.172 198.637 202.895 198.979 203.638C202.211 210.684 197.935 216.406 204.399 215.924C207.972 218.052 209.077 221.425 213.995 220.24C218.913 219.056 230.517 226.564 235.094 224.215C239.671 221.866 245.794 231.563 251.435 229.615C256.374 227.909 255.35 222.649 260.248 220.903C265.508 219.036 271.35 219.337 273.819 215.703C275.927 212.591 280.043 212.25 279.621 208.797C278.958 203.457 265.849 207.994 261.995 203.578C258.562 199.623 263.541 194.363 260.931 189.686C257.799 184.105 257.317 183.763 256.012 177.922C254.587 171.497 264.444 165.977 261.092 159.633C259.606 156.822 254.748 157.445 251.757 157.907C251.496 157.947 251.255 157.987 250.994 158.047C248.163 158.589 245.513 160.175 242.723 160.978C242.422 161.078 242.08 161.159 241.759 161.239C240.836 161.42 239.39 161.279 238.065 160.697C236.479 159.994 236.118 158.469 235.295 157.284C233.207 154.253 228.369 152.326 225.98 153.45C225.94 153.45 225.92 153.49 225.88 153.49C223.711 154.554 220.821 153.952 218.873 152.185C215.922 149.495 213.132 146.945 210.642 147.568C205.543 148.833 205.744 152.667 200.725 155.357L200.786 155.337Z" stroke="url(#paint8_linear_74_2350)" stroke-width="1.5" stroke-miterlimit="10"/>
<path d="M235.075 200.747C237.584 199.001 245.293 199.261 247.802 197.535C250.312 195.809 254.447 196.009 254.447 193.018C254.447 188.722 241.82 194.905 239.291 191.412C236.761 187.919 243.808 183.021 241.278 179.528C238.749 176.034 244.249 172.22 241.72 168.727C240.756 167.402 238.508 167.964 237.183 168.305C235.797 168.647 234.633 169.651 233.288 170.172C232.646 170.413 225.158 167.101 225.138 167.121C223.973 167.984 219.135 163.507 215.261 167.121C209.519 172.481 208.314 180.692 209.258 181.997C211.788 185.49 213.193 183.221 215.722 186.735C218.252 190.228 215.722 191.974 218.252 195.487C220.781 198.98 219.757 202.735 222.347 199.522C224.254 197.174 232.585 202.494 235.095 200.747H235.075Z" stroke="url(#paint9_linear_74_2350)" stroke-width="1.5" stroke-miterlimit="10"/>
<defs>
<linearGradient id="paint0_linear_74_2350" x1="0.234102" y1="237.123" x2="485.212" y2="237.123" gradientUnits="userSpaceOnUse">
<stop offset="0.06" stop-color="#6E4897"/>
<stop offset="0.18" stop-color="white"/>
<stop offset="0.3" stop-color="#EC6338"/>
<stop offset="0.46" stop-color="white"/>
<stop offset="0.62" stop-color="#624897"/>
<stop offset="0.64" stop-color="#6A529C"/>
<stop offset="0.67" stop-color="#826EAC"/>
<stop offset="0.71" stop-color="#A99BC6"/>
<stop offset="0.76" stop-color="#DFD9E9"/>
<stop offset="0.78" stop-color="white"/>
<stop offset="0.82" stop-color="#F9D7CB"/>
<stop offset="0.91" stop-color="#ED734B"/>
<stop offset="0.92" stop-color="#EB6336"/>
</linearGradient>
<linearGradient id="paint1_linear_74_2350" x1="33.7592" y1="250.409" x2="445.493" y2="198.613" gradientUnits="userSpaceOnUse">
<stop offset="0.06" stop-color="#6E4897"/>
<stop offset="0.18" stop-color="white"/>
<stop offset="0.3" stop-color="#EC6338"/>
<stop offset="0.46" stop-color="white"/>
<stop offset="0.62" stop-color="#624897"/>
<stop offset="0.64" stop-color="#6A529C"/>
<stop offset="0.67" stop-color="#826EAC"/>
<stop offset="0.71" stop-color="#A99BC6"/>
<stop offset="0.76" stop-color="#DFD9E9"/>
<stop offset="0.78" stop-color="white"/>
<stop offset="0.82" stop-color="#F9D7CB"/>
<stop offset="0.91" stop-color="#ED734B"/>
<stop offset="0.92" stop-color="#EB6336"/>
</linearGradient>
<linearGradient id="paint2_linear_74_2350" x1="76.2306" y1="270.831" x2="400.329" y2="174.829" gradientUnits="userSpaceOnUse">
<stop offset="0.06" stop-color="#6E4897"/>
<stop offset="0.18" stop-color="white"/>
<stop offset="0.3" stop-color="#EC6338"/>
<stop offset="0.46" stop-color="white"/>
<stop offset="0.62" stop-color="#624897"/>
<stop offset="0.64" stop-color="#6A529C"/>
<stop offset="0.67" stop-color="#826EAC"/>
<stop offset="0.71" stop-color="#A99BC6"/>
<stop offset="0.76" stop-color="#DFD9E9"/>
<stop offset="0.78" stop-color="white"/>
<stop offset="0.82" stop-color="#F9D7CB"/>
<stop offset="0.91" stop-color="#ED734B"/>
<stop offset="0.92" stop-color="#EB6336"/>
</linearGradient>
<linearGradient id="paint3_linear_74_2350" x1="102.138" y1="288.765" x2="375.555" y2="140.991" gradientUnits="userSpaceOnUse">
<stop offset="0.06" stop-color="#6E4897"/>
<stop offset="0.18" stop-color="white"/>
<stop offset="0.3" stop-color="#EC6338"/>
<stop offset="0.46" stop-color="white"/>
<stop offset="0.62" stop-color="#624897"/>
<stop offset="0.64" stop-color="#6A529C"/>
<stop offset="0.67" stop-color="#826EAC"/>
<stop offset="0.71" stop-color="#A99BC6"/>
<stop offset="0.76" stop-color="#DFD9E9"/>
<stop offset="0.78" stop-color="white"/>
<stop offset="0.82" stop-color="#F9D7CB"/>
<stop offset="0.91" stop-color="#ED734B"/>
<stop offset="0.92" stop-color="#EB6336"/>
</linearGradient>
<linearGradient id="paint4_linear_74_2350" x1="138.87" y1="268.41" x2="339.87" y2="83.5811" gradientUnits="userSpaceOnUse">
<stop offset="0.06" stop-color="#6E4897"/>
<stop offset="0.18" stop-color="white"/>
<stop offset="0.3" stop-color="#EC6338"/>
<stop offset="0.46" stop-color="white"/>
<stop offset="0.62" stop-color="#624897"/>
<stop offset="0.64" stop-color="#6A529C"/>
<stop offset="0.67" stop-color="#826EAC"/>
<stop offset="0.71" stop-color="#A99BC6"/>
<stop offset="0.76" stop-color="#DFD9E9"/>
<stop offset="0.78" stop-color="white"/>
<stop offset="0.82" stop-color="#F9D7CB"/>
<stop offset="0.91" stop-color="#ED734B"/>
<stop offset="0.92" stop-color="#EB6336"/>
</linearGradient>
<linearGradient id="paint5_linear_74_2350" x1="182.966" y1="251.924" x2="298.717" y2="68.1847" gradientUnits="userSpaceOnUse">
<stop offset="0.06" stop-color="#6E4897"/>
<stop offset="0.18" stop-color="white"/>
<stop offset="0.3" stop-color="#EC6338"/>
<stop offset="0.46" stop-color="white"/>
<stop offset="0.62" stop-color="#624897"/>
<stop offset="0.64" stop-color="#6A529C"/>
<stop offset="0.67" stop-color="#826EAC"/>
<stop offset="0.71" stop-color="#A99BC6"/>
<stop offset="0.76" stop-color="#DFD9E9"/>
<stop offset="0.78" stop-color="white"/>
<stop offset="0.82" stop-color="#F9D7CB"/>
<stop offset="0.91" stop-color="#ED734B"/>
<stop offset="0.92" stop-color="#EB6336"/>
</linearGradient>
<linearGradient id="paint6_linear_74_2350" x1="214.578" y1="267.214" x2="262.618" y2="119.45" gradientUnits="userSpaceOnUse">
<stop offset="0.06" stop-color="#6E4897"/>
<stop offset="0.18" stop-color="white"/>
<stop offset="0.3" stop-color="#EC6338"/>
<stop offset="0.46" stop-color="white"/>
<stop offset="0.62" stop-color="#624897"/>
<stop offset="0.64" stop-color="#6A529C"/>
<stop offset="0.67" stop-color="#826EAC"/>
<stop offset="0.71" stop-color="#A99BC6"/>
<stop offset="0.76" stop-color="#DFD9E9"/>
<stop offset="0.78" stop-color="white"/>
<stop offset="0.82" stop-color="#F9D7CB"/>
<stop offset="0.91" stop-color="#ED734B"/>
<stop offset="0.92" stop-color="#EB6336"/>
</linearGradient>
<linearGradient id="paint7_linear_74_2350" x1="228.213" y1="249.055" x2="241.61" y2="124.114" gradientUnits="userSpaceOnUse">
<stop offset="0.06" stop-color="#6E4897"/>
<stop offset="0.18" stop-color="white"/>
<stop offset="0.3" stop-color="#EC6338"/>
<stop offset="0.46" stop-color="white"/>
<stop offset="0.62" stop-color="#624897"/>
<stop offset="0.64" stop-color="#6A529C"/>
<stop offset="0.67" stop-color="#826EAC"/>
<stop offset="0.71" stop-color="#A99BC6"/>
<stop offset="0.76" stop-color="#DFD9E9"/>
<stop offset="0.78" stop-color="white"/>
<stop offset="0.82" stop-color="#F9D7CB"/>
<stop offset="0.91" stop-color="#ED734B"/>
<stop offset="0.92" stop-color="#EB6336"/>
</linearGradient>
<linearGradient id="paint8_linear_74_2350" x1="232.133" y1="170.562" x2="227.289" y2="84.4519" gradientUnits="userSpaceOnUse">
<stop offset="0.06" stop-color="#6E4897"/>
<stop offset="0.18" stop-color="white"/>
<stop offset="0.3" stop-color="#EC6338"/>
<stop offset="0.46" stop-color="white"/>
<stop offset="0.62" stop-color="#624897"/>
<stop offset="0.64" stop-color="#6A529C"/>
<stop offset="0.67" stop-color="#826EAC"/>
<stop offset="0.71" stop-color="#A99BC6"/>
<stop offset="0.76" stop-color="#DFD9E9"/>
<stop offset="0.78" stop-color="white"/>
<stop offset="0.82" stop-color="#F9D7CB"/>
<stop offset="0.91" stop-color="#ED734B"/>
<stop offset="0.92" stop-color="#EB6336"/>
</linearGradient>
<linearGradient id="paint9_linear_74_2350" x1="233.776" y1="201.683" x2="226.702" y2="163.099" gradientUnits="userSpaceOnUse">
<stop offset="0.06" stop-color="#6E4897"/>
<stop offset="0.18" stop-color="white"/>
<stop offset="0.3" stop-color="#EC6338"/>
<stop offset="0.46" stop-color="white"/>
<stop offset="0.62" stop-color="#624897"/>
<stop offset="0.64" stop-color="#6A529C"/>
<stop offset="0.67" stop-color="#826EAC"/>
<stop offset="0.71" stop-color="#A99BC6"/>
<stop offset="0.76" stop-color="#DFD9E9"/>
<stop offset="0.78" stop-color="white"/>
<stop offset="0.82" stop-color="#F9D7CB"/>
<stop offset="0.91" stop-color="#ED734B"/>
<stop offset="0.92" stop-color="#EB6336"/>
</linearGradient>
</defs>
</svg>
